# xmcd
#
# Track frame offsets:
#	150
#	13121
#	25544
#	38446
#	51102
#	68607
#	79137
#	95756
#	110461
#	123384
#	136948
#	154466
#	167721
#	180825
#
# Disc length: 2585 seconds
# Revision: 0
# Processed by: cddbd v1.5.2PL0 Copyright (c) Steve Scherf et al.
# Submitted via: dBpowerAMP V12.0
#
DISCID=a80a170e
DTITLE=Mark Brown - Skin and Bone
DYEAR=2015
DGENRE=Country
TTITLE0=See Ya Next Time
TTITLE1=Trouble
TTITLE2=Smashed
TTITLE3=I Cried in Your Bed
TTITLE4=Creosote
TTITLE5=Hatchet Man
TTITLE6=Hurt
TTITLE7=When the Time Comes
TTITLE8=Pony
TTITLE9=Icy Bob
TTITLE10=Sleep Little Angel
TTITLE11=When Your Sister Comes
TTITLE12=Spaceship to the Moon
TTITLE13=Granny
EXTD=
EXTT0=
EXTT1=
EXTT2=
EXTT3=
EXTT4=
EXTT5=
EXTT6=
EXTT7=
EXTT8=
EXTT9=
EXTT10=
EXTT11=
EXTT12=
EXTT13=
PLAYORDER=
